<?xml version="1.0" encoding="UTF-8"?><svg id="Layer_2" xmlns="http://www.w3.org/2000/svg" xmlns:xlink="http://www.w3.org/1999/xlink" viewBox="0 0 512.92 102.82"><defs><style>.cls-1,.cls-2{fill:url(#linear-gradient);}.cls-3{fill:#040504;}.cls-4{fill:url(#linear-gradient-8);}.cls-5{fill:url(#linear-gradient-9);}.cls-6{fill:url(#linear-gradient-3);}.cls-7{fill:url(#linear-gradient-4);}.cls-8{fill:url(#linear-gradient-2);}.cls-9{fill:url(#linear-gradient-6);}.cls-10{fill:url(#linear-gradient-7);}.cls-11{fill:url(#linear-gradient-5);}.cls-2,.cls-12,.cls-13,.cls-14,.cls-15,.cls-16,.cls-17,.cls-18,.cls-19{stroke:#fff;stroke-miterlimit:10;stroke-width:5px;}.cls-12{fill:url(#linear-gradient-15);}.cls-13{fill:url(#linear-gradient-16);}.cls-14{fill:url(#linear-gradient-17);}.cls-15{fill:url(#linear-gradient-14);}.cls-16{fill:url(#linear-gradient-13);}.cls-17{fill:url(#linear-gradient-12);}.cls-18{fill:url(#linear-gradient-11);}.cls-19{fill:url(#linear-gradient-10);}</style><linearGradient id="linear-gradient" x1="28.22" y1="-22.89" x2="34.45" y2="110.04" gradientUnits="userSpaceOnUse"><stop offset="0" stop-color="#ffef26"/><stop offset=".05" stop-color="#face18"/><stop offset=".11" stop-color="#f7b40d"/><stop offset=".16" stop-color="#f4a106"/><stop offset=".22" stop-color="#f39501"/><stop offset=".28" stop-color="#f39200"/><stop offset=".67" stop-color="#e30613"/><stop offset="1" stop-color="#a3195b"/></linearGradient><linearGradient id="linear-gradient-2" x1="71.2" y1="-24.93" x2="77.43" y2="108" xlink:href="#linear-gradient"/><linearGradient id="linear-gradient-3" x1="122.65" y1="-27.35" x2="128.88" y2="105.56" xlink:href="#linear-gradient"/><linearGradient id="linear-gradient-4" x1="185.31" y1="-30.21" x2="191.53" y2="102.54" xlink:href="#linear-gradient"/><linearGradient id="linear-gradient-5" x1="247.47" y1="-33.25" x2="253.7" y2="99.67" xlink:href="#linear-gradient"/><linearGradient id="linear-gradient-6" x1="324.3" y1="-36.89" x2="330.54" y2="96.04" xlink:href="#linear-gradient"/><linearGradient id="linear-gradient-7" x1="380.04" y1="-39.53" x2="386.27" y2="93.39" xlink:href="#linear-gradient"/><linearGradient id="linear-gradient-8" x1="438.81" y1="-42.07" x2="445.04" y2="90.86" xlink:href="#linear-gradient"/><linearGradient id="linear-gradient-9" x1="480.99" y1="-44.06" x2="487.22" y2="88.86" xlink:href="#linear-gradient"/><linearGradient id="linear-gradient-10" x1="71.2" y1="-24.93" x2="77.43" y2="108" xlink:href="#linear-gradient"/><linearGradient id="linear-gradient-11" x1="122.65" y1="-27.35" x2="128.88" y2="105.56" xlink:href="#linear-gradient"/><linearGradient id="linear-gradient-12" x1="185.31" y1="-30.21" x2="191.53" y2="102.54" xlink:href="#linear-gradient"/><linearGradient id="linear-gradient-13" x1="247.47" y1="-33.25" x2="253.7" y2="99.67" xlink:href="#linear-gradient"/><linearGradient id="linear-gradient-14" x1="324.3" y1="-36.89" x2="330.54" y2="96.04" xlink:href="#linear-gradient"/><linearGradient id="linear-gradient-15" x1="380.04" y1="-39.53" x2="386.27" y2="93.39" xlink:href="#linear-gradient"/><linearGradient id="linear-gradient-16" x1="438.81" y1="-42.07" x2="445.04" y2="90.86" xlink:href="#linear-gradient"/><linearGradient id="linear-gradient-17" x1="480.99" y1="-44.06" x2="487.22" y2="88.86" xlink:href="#linear-gradient"/></defs><g id="Layer_1-2"><g><path class="cls-1" d="M8.3,100.32c-1.78,0-3.03-1.59-3.09-3.08L2.5,22.93c-.03-.8,.28-1.6,.84-2.2,.56-.6,1.31-.95,2.12-.98l50.27-1.83c1.72,0,3.11,1.3,3.17,2.96l.62,16.98c.07,1.85-1.22,3.23-3.07,3.3l-27.06,.99,.26,7.23,21.22-.77c.9,0,1.71,.35,2.27,.99,.52,.59,.76,1.36,.66,2.11l-1,15.8c-.17,1.31-1.48,2.77-3.29,2.83l-19.08,.7,.93,25.37c.06,1.64-1.38,3.13-3.07,3.19l-20,.73Z"/><path class="cls-3" d="M55.73,19.41c.97,0,1.64,.75,1.67,1.51l.62,16.98c.04,1.01-.61,1.71-1.62,1.75l-28.56,1.04,.37,10.23,22.6-.83s.05,0,.07,0c.97,0,1.53,.75,1.44,1.41l-1,15.8c-.09,.68-.85,1.5-1.86,1.53l-20.58,.75,.98,26.87c.03,.79-.73,1.6-1.63,1.64l-19.9,.73s-.03,0-.05,0c-.88,0-1.56-.86-1.59-1.63L4,22.87c-.03-.79,.62-1.6,1.52-1.63l50.14-1.83s.05,0,.07,0m0-3c-.06,0-.12,0-.18,0l-50.14,1.83c-1.21,.04-2.33,.56-3.17,1.46-.83,.89-1.28,2.09-1.24,3.28L3.72,97.3c.09,2.49,2.15,4.52,4.59,4.52h.16s19.9-.73,19.9-.73c2.54-.09,4.61-2.27,4.52-4.74l-.87-23.87,17.58-.64c2.35-.08,4.43-1.9,4.72-4.14v-.1s.02-.1,.02-.1l.99-15.73c.11-1.14-.26-2.28-1.04-3.16-.84-.96-2.08-1.5-3.4-1.5-.06,0-.12,0-.18,0l-19.6,.72-.15-4.24,25.56-.93c2.67-.1,4.61-2.19,4.51-4.86l-.62-16.98c-.09-2.47-2.14-4.4-4.67-4.4h0Z"/><path class="cls-8" d="M66.43,98.2c-1.59,0-3.03-1.39-3.09-2.96l-2.71-74.31c-.06-1.7,1.32-3.24,2.96-3.3l20.02-.73c1.72,0,3.11,1.35,3.18,3.07l2.71,74.32c.03,.79-.27,1.58-.82,2.18-.58,.62-1.38,.98-2.25,1.01l-20,.73Z"/><path class="cls-3" d="M83.61,18.39c.97,0,1.65,.75,1.68,1.63l2.71,74.31c.03,.79-.62,1.6-1.63,1.64l-19.9,.73s-.03,0-.04,0c-.77,0-1.56-.74-1.59-1.52l-2.71-74.31c-.03-.9,.72-1.71,1.51-1.74l19.9-.73s.05,0,.07,0m0-3c-.06,0-.12,0-.18,0l-19.9,.73c-2.48,.09-4.49,2.31-4.4,4.85l2.71,74.32c.09,2.39,2.19,4.41,4.59,4.41h.15s19.9-.73,19.9-.73c1.27-.05,2.44-.58,3.29-1.49,.82-.88,1.27-2.07,1.22-3.25l-2.71-74.31c-.09-2.53-2.15-4.52-4.68-4.52h0Z"/><path class="cls-6" d="M97.78,97.05c-1.67,0-3.13-1.35-3.19-2.96l-2.71-74.32c-.03-.82,.28-1.65,.86-2.27,.58-.62,1.38-1,2.21-1.03l29.68-1.08c.55-.02,1.1-.03,1.64-.03,17.42,0,29.05,10.14,29.62,25.83,.33,9.15-4.68,18.19-12.36,22.59l18,26.85c.56,.93,.61,1.89,.17,2.71-.47,.87-1.44,1.43-2.53,1.47l-24.2,.88c-1.62,0-3.15-1-3.91-2.55l-10.95-20.95,.76,20.94c.03,.81-.31,1.62-.93,2.23-.6,.59-1.4,.94-2.26,.97l-19.9,.72Zm21.43-49.26l5.13-.19c3.03-.11,4.85-1.89,4.75-4.64-.1-2.64-1.93-4.29-4.79-4.29-.09,0-.18,0-.28,0l-5.13,.19,.33,8.92Z"/><path class="cls-3" d="M126.27,16.86c16.45,0,27.58,9.57,28.13,24.39,.32,8.88-4.74,18.07-13.04,21.98l18.93,28.24c.6,.99-.16,1.81-1.17,1.84l-24.06,.88s-.06,0-.09,0c-1.09,0-2.09-.74-2.56-1.71l-12.59-24.08-1.35,.05,.9,24.73c.03,.79-.73,1.6-1.74,1.64l-19.79,.72s-.04,0-.06,0c-.88,0-1.66-.74-1.69-1.51l-2.71-74.31c-.03-.9,.72-1.71,1.62-1.75l29.68-1.08c.53-.02,1.06-.03,1.58-.03m-8.5,32.48l6.63-.24c3.82-.14,6.32-2.59,6.19-6.19-.13-3.49-2.65-5.73-6.29-5.73-.11,0-.22,0-.33,0l-6.63,.24,.43,11.92m8.51-35.48v0h0c-.56,0-1.12,.01-1.69,.03l-29.68,1.08c-1.22,.04-2.4,.59-3.25,1.5-.85,.91-1.31,2.13-1.26,3.35l2.71,74.31c.09,2.39,2.23,4.4,4.69,4.4,.06,0,.11,0,.17,0l19.79-.72c1.23-.05,2.38-.54,3.25-1.4,.92-.9,1.42-2.13,1.38-3.35l-.52-14.31,7.88,15.08c1.01,2.03,3.07,3.35,5.24,3.35,.07,0,.13,0,.2,0l24.06-.88c1.62-.06,3.08-.92,3.79-2.25,.69-1.28,.63-2.83-.17-4.14l-.04-.06-.04-.06-17.13-25.56c7.37-4.92,12.09-13.96,11.75-23.1-.6-16.32-13.1-27.28-31.12-27.28h0Zm-5.83,26.45l3.63-.13c.08,0,.15,0,.22,0,1.19,0,3.21,.37,3.3,2.84,.09,2.58-2.03,3.04-3.3,3.09l-3.64,.13-.22-5.92h0Z"/><path class="cls-7" d="M187.93,95.42c-9.38,0-18.73-2.62-24.42-6.83-1.82-1.27-1.93-2.83-1.45-3.82l6.45-15.97c.47-1.64,1.66-2.23,2.63-2.23,.51,0,1.03,.15,1.53,.44,4.97,2.57,11.04,4.44,15.08,4.62,1.41-.06,2.6-.42,3.36-1.01,.66-.51,.96-1.14,.93-1.92-.05-1.25-4.33-2.75-7.77-3.96-9.68-3.4-24.32-8.54-24.95-25.69-.58-15.89,11.06-27.01,28.97-27.66,.39-.01,.78-.02,1.18-.02,8.13,0,18,2.92,25.16,7.43,1.51,.86,2.19,2.56,1.54,3.88l-6.45,15.97c-.47,1.64-1.66,2.23-2.63,2.23-.51,0-1.03-.15-1.53-.44-5.3-2.77-11.61-4.86-15.33-5.07-1.35,.06-2.49,.39-3.22,.94-.61,.46-.89,1.04-.86,1.76,.04,1.24,4.33,2.73,7.78,3.92,9.77,3.39,24.53,8.51,25.17,25.83,.28,7.79-2.4,14.54-7.77,19.53-5.31,4.93-12.8,7.71-21.66,8.04-.58,.02-1.17,.03-1.76,.03Z"/><path class="cls-3" d="M189.49,12.86c7.8,0,17.43,2.83,24.36,7.2,.92,.53,1.29,1.42,.97,1.99l-6.5,16.11c-.21,.79-.65,1.21-1.21,1.21-.24,0-.51-.08-.79-.24-5.62-2.95-12.12-5.07-16.07-5.27-3.49,.13-5.68,1.78-5.59,4.26,.24,6.63,32.04,5.02,32.95,29.76,.55,14.95-10.67,25.38-27.98,26.01-.57,.02-1.14,.03-1.71,.03-8.92,0-18.09-2.51-23.52-6.54-.92-.64-1.29-1.42-.97-1.99l6.5-16.11c.21-.79,.65-1.21,1.21-1.21,.24,0,.51,.08,.78,.24,5.28,2.73,11.54,4.64,15.83,4.83,3.6-.13,5.9-1.9,5.8-4.49-.24-6.63-31.82-5.14-32.72-29.65-.55-15.07,10.44-25.49,27.53-26.11,.37-.01,.74-.02,1.12-.02m0-3c-.41,0-.83,0-1.23,.02-18.81,.69-31.03,12.43-30.42,29.22,.66,18.17,16.49,23.73,25.95,27.05,2.48,.87,5.83,2.05,6.74,2.87-.04,.13-.13,.26-.33,.42-.51,.39-1.39,.64-2.45,.69-3.83-.19-9.59-1.98-14.4-4.46-.71-.4-1.46-.6-2.21-.6-1.88,0-3.45,1.26-4.05,3.23l-6.4,15.86c-.77,1.64-.46,3.95,1.96,5.66,5.93,4.38,15.61,7.1,25.28,7.1,.61,0,1.21-.01,1.82-.03,9.22-.34,17.05-3.25,22.62-8.44,5.7-5.3,8.55-12.45,8.25-20.68-.67-18.35-16.63-23.89-26.17-27.2-2.47-.86-5.79-2.01-6.73-2.82,.04-.08,.11-.15,.23-.25,.22-.17,.88-.56,2.3-.63,3.53,.21,9.51,2.21,14.65,4.9,.72,.4,1.46,.6,2.22,.6,1.88,0,3.45-1.26,4.05-3.23l6.4-15.86c.95-2,.04-4.49-2.16-5.79-7.38-4.64-17.54-7.63-25.91-7.63h0Z"/><path class="cls-11" d="M242.58,91.76c-1.67,0-3.13-1.36-3.19-2.96l-1.98-54.27-17.27,.63c-1.64,0-3.02-1.33-3.08-2.96l-.62-16.98c-.06-1.7,1.32-3.24,2.96-3.3l60.61-2.21c.91,0,1.76,.37,2.34,1.01,.54,.6,.8,1.39,.71,2.16l-1.06,17.08c-.14,1.64-1.57,2.99-3.18,3.04l-15.25,.56,1.98,54.27c.03,.8-.28,1.6-.84,2.21-.56,.6-1.31,.95-2.12,.98l-20.01,.73Z"/><path class="cls-3" d="M280.02,11.22c.97,0,1.64,.75,1.56,1.52l-1.06,17.15c-.08,.9-.95,1.61-1.74,1.64l-16.75,.61,2.04,55.76c.03,.79-.62,1.6-1.52,1.63l-19.9,.73s-.04,0-.06,0c-.88,0-1.66-.74-1.69-1.51l-2.04-55.77-18.66,.68s-.03,0-.05,0c-.77,0-1.55-.64-1.58-1.52l-.62-16.98c-.03-.9,.73-1.71,1.51-1.74l60.49-2.21s.05,0,.07,0m0-3c-.06,0-.12,0-.18,0l-60.48,2.21c-2.48,.09-4.49,2.31-4.4,4.85l.62,16.98c.09,2.43,2.14,4.41,4.58,4.41,.05,0,.11,0,.16,0l15.66-.57,1.93,52.77c.09,2.39,2.23,4.4,4.69,4.4,.06,0,.11,0,.17,0l19.9-.73c1.21-.04,2.33-.56,3.17-1.46,.83-.89,1.28-2.09,1.24-3.28l-1.93-52.76,13.75-.5c2.38-.09,4.41-2.01,4.62-4.37v-.04s0-.04,0-.04l1.06-17.1c.1-1.17-.3-2.35-1.1-3.24-.86-.96-2.12-1.51-3.45-1.51h0Z"/><path class="cls-9" d="M304.54,89.5c-1.78,0-3.03-1.59-3.08-3.08l-2.71-74.31c-.06-1.67,1.3-3.12,2.96-3.19l50.27-1.83c1.72,0,3.11,1.3,3.17,2.96l.62,16.97c.07,1.85-1.22,3.23-3.07,3.3l-27.06,.99,.26,7.23,21.22-.77c.9,0,1.71,.35,2.27,.99,.52,.59,.76,1.36,.66,2.11l-.99,15.7c-.18,1.41-1.49,2.87-3.3,2.94l-19.08,.7,.93,25.37c.03,.79-.3,1.59-.89,2.2-.59,.61-1.37,.96-2.18,.99l-20,.73Z"/><path class="cls-3" d="M351.97,8.59c.97,0,1.64,.75,1.67,1.51l.62,16.98c.04,1.01-.61,1.71-1.62,1.75l-28.56,1.04,.37,10.23,22.6-.82s.05,0,.07,0c.97,0,1.53,.75,1.44,1.41l-1,15.8c-.09,.68-.85,1.49-1.86,1.53l-20.57,.75,.98,26.87c.03,.79-.73,1.6-1.63,1.64l-19.9,.73s-.03,0-.05,0c-.87,0-1.56-.86-1.59-1.63l-2.71-74.31c-.03-.79,.62-1.6,1.52-1.63l50.14-1.83s.05,0,.07,0m0-3c-.06,0-.12,0-.18,0l-50.14,1.83c-2.52,.09-4.5,2.22-4.41,4.74l2.71,74.32c.09,2.45,2.19,4.52,4.58,4.52h.16s19.9-.73,19.9-.73c1.2-.04,2.34-.55,3.2-1.44,.88-.9,1.36-2.11,1.31-3.3l-.87-23.87,17.58-.64c2.36-.09,4.43-1.91,4.73-4.14v-.1s.02-.1,.02-.1l.99-15.73c.11-1.14-.26-2.28-1.04-3.16-.84-.96-2.08-1.5-3.4-1.5-.06,0-.12,0-.18,0l-19.6,.71-.15-4.24,25.56-.93c2.67-.1,4.61-2.19,4.51-4.86l-.62-16.98c-.09-2.47-2.14-4.4-4.67-4.4h0Z"/><path class="cls-10" d="M347.25,87.94c-.92,0-1.75-.43-2.21-1.16-.44-.67-.51-1.51-.21-2.27l22.69-75.6,.04-.09c.58-1.29,2.36-2.38,3.96-2.44l23.08-.84c1.57,0,3.32,.94,3.98,2.14l.05,.09,28.14,73.75c.36,.75,.34,1.61-.07,2.32-.44,.77-1.27,1.25-2.21,1.29l-22.42,.82c-1.51,0-2.91-.83-3.63-2.16l-.07-.12-3.5-10.74-18.88,.69-2.7,10.96-.06,.13c-.65,1.44-2.04,2.37-3.62,2.43l-22.37,.81Zm33.4-33.6l8.17-.3-4.61-14.23-3.56,14.53Z"/><path class="cls-3" d="M394.6,7.04c1.1,0,2.31,.72,2.66,1.36l28.13,73.73c.36,.66-.06,1.47-.96,1.5l-22.26,.81s-.07,0-.1,0c-.97,0-1.85-.52-2.32-1.38l-3.8-11.68-21.14,.77-2.94,11.93c-.42,.92-1.29,1.51-2.31,1.55l-22.26,.81s-.04,0-.06,0c-.86,0-1.32-.75-1.01-1.43l22.68-75.58c.31-.69,1.52-1.52,2.64-1.56l22.93-.84s.06,0,.09,0m-15.87,48.87l12.14-.44-6.85-21.14-5.29,21.58m15.87-51.87h0c-.07,0-.13,0-.2,0l-22.93,.84c-2.18,.08-4.44,1.5-5.27,3.31l-.08,.19-.06,.2-22.64,75.45c-.45,1.19-.32,2.51,.37,3.57,.75,1.16,2.05,1.85,3.48,1.85,.05,0,.11,0,.17,0l22.26-.81c2.15-.08,4.04-1.34,4.93-3.3l.12-.25,.07-.27,2.4-9.73,16.61-.61,3.1,9.53,.09,.26,.13,.24c.99,1.81,2.89,2.94,4.95,2.94,.07,0,.14,0,.21,0l22.26-.81c1.47-.05,2.76-.82,3.46-2.05,.64-1.13,.69-2.47,.14-3.65L400.06,7.33l-.07-.19-.1-.18c-.91-1.67-3.19-2.92-5.29-2.92h0Zm-12.01,48.73l1.83-7.47,2.37,7.32-4.2,.15h0Z"/><path class="cls-4" d="M434.22,84.95c-1.59,0-3.03-1.38-3.09-2.96l-2.71-74.31c-.06-1.7,1.32-3.24,2.96-3.3l20.03-.73c1.72,0,3.12,1.35,3.18,3.07l2.71,74.31c.06,1.69-1.32,3.12-3.07,3.19l-20,.73Z"/><path class="cls-3" d="M451.4,5.14c.97,0,1.65,.75,1.68,1.63l2.71,74.31c.03,.79-.62,1.6-1.63,1.64l-19.9,.73s-.03,0-.04,0c-.77,0-1.56-.74-1.59-1.52l-2.71-74.31c-.03-.9,.73-1.71,1.51-1.74l19.9-.73s.05,0,.07,0m0-3c-.06,0-.12,0-.18,0l-19.9,.73c-2.48,.09-4.49,2.31-4.4,4.85l2.71,74.32c.09,2.39,2.19,4.41,4.59,4.41h.16s19.9-.73,19.9-.73c2.58-.09,4.61-2.22,4.52-4.74l-2.71-74.32c-.09-2.53-2.14-4.52-4.68-4.52h0Z"/><path class="cls-5" d="M465.58,83.8c-1.67,0-3.13-1.36-3.19-2.96l-2.71-74.31c-.03-.82,.28-1.65,.86-2.27,.58-.62,1.38-1,2.2-1.03l20.01-.73c1.7,0,3.13,1.38,3.19,3.07l1.98,54.15,19.52-.71c1.6,0,2.91,1.3,2.97,2.97v.07s-.95,17.22-.95,17.22c-.17,1.66-1.6,3-3.18,3.06l-40.7,1.48Z"/><path class="cls-3" d="M482.76,4c.88,0,1.66,.75,1.69,1.63l2.03,55.65,20.91-.76s.03,0,.05,0c.77,0,1.44,.64,1.47,1.52l-.95,17.15c-.08,.79-.84,1.61-1.74,1.64l-40.59,1.48s-.04,0-.06,0c-.88,0-1.66-.74-1.69-1.51l-2.71-74.31c-.03-.9,.73-1.71,1.62-1.75l19.9-.73s.04,0,.06,0m0-3c-.05,0-.11,0-.16,0l-19.9,.73c-2.54,.09-4.61,2.32-4.51,4.86l2.71,74.31c.09,2.39,2.23,4.4,4.69,4.4,.06,0,.11,0,.17,0l40.59-1.48c2.34-.09,4.37-1.98,4.61-4.32v-.08s.01-.08,.01-.08l.95-17.15v-.14s0-.14,0-.14c-.09-2.47-2.05-4.41-4.47-4.41-.05,0-.11,0-.16,0l-17.91,.65-1.92-52.65c-.09-2.49-2.2-4.52-4.69-4.52h0Z"/><path class="cls-2" d="M8.3,100.32c-1.78,0-3.03-1.59-3.09-3.08L2.5,22.93c-.03-.8,.28-1.6,.84-2.2,.56-.6,1.31-.95,2.12-.98l50.27-1.83c1.72,0,3.11,1.3,3.17,2.96l.62,16.98c.07,1.85-1.22,3.23-3.07,3.3l-27.06,.99,.26,7.23,21.22-.77c.9,0,1.71,.35,2.27,.99,.52,.59,.76,1.36,.66,2.11l-1,15.8c-.17,1.31-1.48,2.77-3.29,2.83l-19.08,.7,.93,25.37c.06,1.64-1.38,3.13-3.07,3.19l-20,.73Z"/><path class="cls-3" d="M55.73,19.41c.97,0,1.64,.75,1.67,1.51l.62,16.98c.04,1.01-.61,1.71-1.62,1.75l-28.56,1.04,.37,10.23,22.6-.83s.05,0,.07,0c.97,0,1.53,.75,1.44,1.41l-1,15.8c-.09,.68-.85,1.5-1.86,1.53l-20.58,.75,.98,26.87c.03,.79-.73,1.6-1.63,1.64l-19.9,.73s-.03,0-.05,0c-.88,0-1.56-.86-1.59-1.63L4,22.87c-.03-.79,.62-1.6,1.52-1.63l50.14-1.83s.05,0,.07,0m0-3c-.06,0-.12,0-.18,0l-50.14,1.83c-1.21,.04-2.33,.56-3.17,1.46-.83,.89-1.28,2.09-1.24,3.28L3.72,97.3c.09,2.49,2.15,4.52,4.59,4.52h.16s19.9-.73,19.9-.73c2.54-.09,4.61-2.27,4.52-4.74l-.87-23.87,17.58-.64c2.35-.08,4.43-1.9,4.72-4.14v-.1s.02-.1,.02-.1l.99-15.73c.11-1.14-.26-2.28-1.04-3.16-.84-.96-2.08-1.5-3.4-1.5-.06,0-.12,0-.18,0l-19.6,.72-.15-4.24,25.56-.93c2.67-.1,4.61-2.19,4.51-4.86l-.62-16.98c-.09-2.47-2.14-4.4-4.67-4.4h0Z"/><path class="cls-19" d="M66.43,98.2c-1.59,0-3.03-1.39-3.09-2.96l-2.71-74.31c-.06-1.7,1.32-3.24,2.96-3.3l20.02-.73c1.72,0,3.11,1.35,3.18,3.07l2.71,74.32c.03,.79-.27,1.58-.82,2.18-.58,.62-1.38,.98-2.25,1.01l-20,.73Z"/><path class="cls-3" d="M83.61,18.39c.97,0,1.65,.75,1.68,1.63l2.71,74.31c.03,.79-.62,1.6-1.63,1.64l-19.9,.73s-.03,0-.04,0c-.77,0-1.56-.74-1.59-1.52l-2.71-74.31c-.03-.9,.72-1.71,1.51-1.74l19.9-.73s.05,0,.07,0m0-3c-.06,0-.12,0-.18,0l-19.9,.73c-2.48,.09-4.49,2.31-4.4,4.85l2.71,74.32c.09,2.39,2.19,4.41,4.59,4.41h.15s19.9-.73,19.9-.73c1.27-.05,2.44-.58,3.29-1.49,.82-.88,1.27-2.07,1.22-3.25l-2.71-74.31c-.09-2.53-2.15-4.52-4.68-4.52h0Z"/><path class="cls-18" d="M97.78,97.05c-1.67,0-3.13-1.35-3.19-2.96l-2.71-74.32c-.03-.82,.28-1.65,.86-2.27,.58-.62,1.38-1,2.21-1.03l29.68-1.08c.55-.02,1.1-.03,1.64-.03,17.42,0,29.05,10.14,29.62,25.83,.33,9.15-4.68,18.19-12.36,22.59l18,26.85c.56,.93,.61,1.89,.17,2.71-.47,.87-1.44,1.43-2.53,1.47l-24.2,.88c-1.62,0-3.15-1-3.91-2.55l-10.95-20.95,.76,20.94c.03,.81-.31,1.62-.93,2.23-.6,.59-1.4,.94-2.26,.97l-19.9,.72Zm21.43-49.26l5.13-.19c3.03-.11,4.85-1.89,4.75-4.64-.1-2.64-1.93-4.29-4.79-4.29-.09,0-.18,0-.28,0l-5.13,.19,.33,8.92Z"/><path class="cls-3" d="M126.27,16.86c16.45,0,27.58,9.57,28.13,24.39,.32,8.88-4.74,18.07-13.04,21.98l18.93,28.24c.6,.99-.16,1.81-1.17,1.84l-24.06,.88s-.06,0-.09,0c-1.09,0-2.09-.74-2.56-1.71l-12.59-24.08-1.35,.05,.9,24.73c.03,.79-.73,1.6-1.74,1.64l-19.79,.72s-.04,0-.06,0c-.88,0-1.66-.74-1.69-1.51l-2.71-74.31c-.03-.9,.72-1.71,1.62-1.75l29.68-1.08c.53-.02,1.06-.03,1.58-.03m-8.5,32.48l6.63-.24c3.82-.14,6.32-2.59,6.19-6.19-.13-3.49-2.65-5.73-6.29-5.73-.11,0-.22,0-.33,0l-6.63,.24,.43,11.92m8.51-35.48v0h0c-.56,0-1.12,.01-1.69,.03l-29.68,1.08c-1.22,.04-2.4,.59-3.25,1.5-.85,.91-1.31,2.13-1.26,3.35l2.71,74.31c.09,2.39,2.23,4.4,4.69,4.4,.06,0,.11,0,.17,0l19.79-.72c1.23-.05,2.38-.54,3.25-1.4,.92-.9,1.42-2.13,1.38-3.35l-.52-14.31,7.88,15.08c1.01,2.03,3.07,3.35,5.24,3.35,.07,0,.13,0,.2,0l24.06-.88c1.62-.06,3.08-.92,3.79-2.25,.69-1.28,.63-2.83-.17-4.14l-.04-.06-.04-.06-17.13-25.56c7.37-4.92,12.09-13.96,11.75-23.1-.6-16.32-13.1-27.28-31.12-27.28h0Zm-5.83,26.45l3.63-.13c.08,0,.15,0,.22,0,1.19,0,3.21,.37,3.3,2.84,.09,2.58-2.03,3.04-3.3,3.09l-3.64,.13-.22-5.92h0Z"/><path class="cls-17" d="M187.93,95.42c-9.38,0-18.73-2.62-24.42-6.83-1.82-1.27-1.93-2.83-1.45-3.82l6.45-15.97c.47-1.64,1.66-2.23,2.63-2.23,.51,0,1.03,.15,1.53,.44,4.97,2.57,11.04,4.44,15.08,4.62,1.41-.06,2.6-.42,3.36-1.01,.66-.51,.96-1.14,.93-1.92-.05-1.25-4.33-2.75-7.77-3.96-9.68-3.4-24.32-8.54-24.95-25.69-.58-15.89,11.06-27.01,28.97-27.66,.39-.01,.78-.02,1.18-.02,8.13,0,18,2.92,25.16,7.43,1.51,.86,2.19,2.56,1.54,3.88l-6.45,15.97c-.47,1.64-1.66,2.23-2.63,2.23-.51,0-1.03-.15-1.53-.44-5.3-2.77-11.61-4.86-15.33-5.07-1.35,.06-2.49,.39-3.22,.94-.61,.46-.89,1.04-.86,1.76,.04,1.24,4.33,2.73,7.78,3.92,9.77,3.39,24.53,8.51,25.17,25.83,.28,7.79-2.4,14.54-7.77,19.53-5.31,4.93-12.8,7.71-21.66,8.04-.58,.02-1.17,.03-1.76,.03Z"/><path class="cls-3" d="M189.49,12.86c7.8,0,17.43,2.83,24.36,7.2,.92,.53,1.29,1.42,.97,1.99l-6.5,16.11c-.21,.79-.65,1.21-1.21,1.21-.24,0-.51-.08-.79-.24-5.62-2.95-12.12-5.07-16.07-5.27-3.49,.13-5.68,1.78-5.59,4.26,.24,6.63,32.04,5.02,32.95,29.76,.55,14.95-10.67,25.38-27.98,26.01-.57,.02-1.14,.03-1.71,.03-8.92,0-18.09-2.51-23.52-6.54-.92-.64-1.29-1.42-.97-1.99l6.5-16.11c.21-.79,.65-1.21,1.21-1.21,.24,0,.51,.08,.78,.24,5.28,2.73,11.54,4.64,15.83,4.83,3.6-.13,5.9-1.9,5.8-4.49-.24-6.63-31.82-5.14-32.72-29.65-.55-15.07,10.44-25.49,27.53-26.11,.37-.01,.74-.02,1.12-.02m0-3c-.41,0-.83,0-1.23,.02-18.81,.69-31.03,12.43-30.42,29.22,.66,18.17,16.49,23.73,25.95,27.05,2.48,.87,5.83,2.05,6.74,2.87-.04,.13-.13,.26-.33,.42-.51,.39-1.39,.64-2.45,.69-3.83-.19-9.59-1.98-14.4-4.46-.71-.4-1.46-.6-2.21-.6-1.88,0-3.45,1.26-4.05,3.23l-6.4,15.86c-.77,1.64-.46,3.95,1.96,5.66,5.93,4.38,15.61,7.1,25.28,7.1,.61,0,1.21-.01,1.82-.03,9.22-.34,17.05-3.25,22.62-8.44,5.7-5.3,8.55-12.45,8.25-20.68-.67-18.35-16.63-23.89-26.17-27.2-2.47-.86-5.79-2.01-6.73-2.82,.04-.08,.11-.15,.23-.25,.22-.17,.88-.56,2.3-.63,3.53,.21,9.51,2.21,14.65,4.9,.72,.4,1.46,.6,2.22,.6,1.88,0,3.45-1.26,4.05-3.23l6.4-15.86c.95-2,.04-4.49-2.16-5.79-7.38-4.64-17.54-7.63-25.91-7.63h0Z"/><path class="cls-16" d="M242.58,91.76c-1.67,0-3.13-1.36-3.19-2.96l-1.98-54.27-17.27,.63c-1.64,0-3.02-1.33-3.08-2.96l-.62-16.98c-.06-1.7,1.32-3.24,2.96-3.3l60.61-2.21c.91,0,1.76,.37,2.34,1.01,.54,.6,.8,1.39,.71,2.16l-1.06,17.08c-.14,1.64-1.57,2.99-3.18,3.04l-15.25,.56,1.98,54.27c.03,.8-.28,1.6-.84,2.21-.56,.6-1.31,.95-2.12,.98l-20.01,.73Z"/><path class="cls-3" d="M280.02,11.22c.97,0,1.64,.75,1.56,1.52l-1.06,17.15c-.08,.9-.95,1.61-1.74,1.64l-16.75,.61,2.04,55.76c.03,.79-.62,1.6-1.52,1.63l-19.9,.73s-.04,0-.06,0c-.88,0-1.66-.74-1.69-1.51l-2.04-55.77-18.66,.68s-.03,0-.05,0c-.77,0-1.55-.64-1.58-1.52l-.62-16.98c-.03-.9,.73-1.71,1.51-1.74l60.49-2.21s.05,0,.07,0m0-3c-.06,0-.12,0-.18,0l-60.48,2.21c-2.48,.09-4.49,2.31-4.4,4.85l.62,16.98c.09,2.43,2.14,4.41,4.58,4.41,.05,0,.11,0,.16,0l15.66-.57,1.93,52.77c.09,2.39,2.23,4.4,4.69,4.4,.06,0,.11,0,.17,0l19.9-.73c1.21-.04,2.33-.56,3.17-1.46,.83-.89,1.28-2.09,1.24-3.28l-1.93-52.76,13.75-.5c2.38-.09,4.41-2.01,4.62-4.37v-.04s0-.04,0-.04l1.06-17.1c.1-1.17-.3-2.35-1.1-3.24-.86-.96-2.12-1.51-3.45-1.51h0Z"/><path class="cls-15" d="M304.54,89.5c-1.78,0-3.03-1.59-3.08-3.08l-2.71-74.31c-.06-1.67,1.3-3.12,2.96-3.19l50.27-1.83c1.72,0,3.11,1.3,3.17,2.96l.62,16.97c.07,1.85-1.22,3.23-3.07,3.3l-27.06,.99,.26,7.23,21.22-.77c.9,0,1.71,.35,2.27,.99,.52,.59,.76,1.36,.66,2.11l-.99,15.7c-.18,1.41-1.49,2.87-3.3,2.94l-19.08,.7,.93,25.37c.03,.79-.3,1.59-.89,2.2-.59,.61-1.37,.96-2.18,.99l-20,.73Z"/><path class="cls-3" d="M351.97,8.59c.97,0,1.64,.75,1.67,1.51l.62,16.98c.04,1.01-.61,1.71-1.62,1.75l-28.56,1.04,.37,10.23,22.6-.82s.05,0,.07,0c.97,0,1.53,.75,1.44,1.41l-1,15.8c-.09,.68-.85,1.49-1.86,1.53l-20.57,.75,.98,26.87c.03,.79-.73,1.6-1.63,1.64l-19.9,.73s-.03,0-.05,0c-.87,0-1.56-.86-1.59-1.63l-2.71-74.31c-.03-.79,.62-1.6,1.52-1.63l50.14-1.83s.05,0,.07,0m0-3c-.06,0-.12,0-.18,0l-50.14,1.83c-2.52,.09-4.5,2.22-4.41,4.74l2.71,74.32c.09,2.45,2.19,4.52,4.58,4.52h.16s19.9-.73,19.9-.73c1.2-.04,2.34-.55,3.2-1.44,.88-.9,1.36-2.11,1.31-3.3l-.87-23.87,17.58-.64c2.36-.09,4.43-1.91,4.73-4.14v-.1s.02-.1,.02-.1l.99-15.73c.11-1.14-.26-2.28-1.04-3.16-.84-.96-2.08-1.5-3.4-1.5-.06,0-.12,0-.18,0l-19.6,.71-.15-4.24,25.56-.93c2.67-.1,4.61-2.19,4.51-4.86l-.62-16.98c-.09-2.47-2.14-4.4-4.67-4.4h0Z"/><path class="cls-12" d="M347.25,87.94c-.92,0-1.75-.43-2.21-1.16-.44-.67-.51-1.51-.21-2.27l22.69-75.6,.04-.09c.58-1.29,2.36-2.38,3.96-2.44l23.08-.84c1.57,0,3.32,.94,3.98,2.14l.05,.09,28.14,73.75c.36,.75,.34,1.61-.07,2.32-.44,.77-1.27,1.25-2.21,1.29l-22.42,.82c-1.51,0-2.91-.83-3.63-2.16l-.07-.12-3.5-10.74-18.88,.69-2.7,10.96-.06,.13c-.65,1.44-2.04,2.37-3.62,2.43l-22.37,.81Zm33.4-33.6l8.17-.3-4.61-14.23-3.56,14.53Z"/><path class="cls-3" d="M394.6,7.04c1.1,0,2.31,.72,2.66,1.36l28.13,73.73c.36,.66-.06,1.47-.96,1.5l-22.26,.81s-.07,0-.1,0c-.97,0-1.85-.52-2.32-1.38l-3.8-11.68-21.14,.77-2.94,11.93c-.42,.92-1.29,1.51-2.31,1.55l-22.26,.81s-.04,0-.06,0c-.86,0-1.32-.75-1.01-1.43l22.68-75.58c.31-.69,1.52-1.52,2.64-1.56l22.93-.84s.06,0,.09,0m-15.87,48.87l12.14-.44-6.85-21.14-5.29,21.58m15.87-51.87h0c-.07,0-.13,0-.2,0l-22.93,.84c-2.18,.08-4.44,1.5-5.27,3.31l-.08,.19-.06,.2-22.64,75.45c-.45,1.19-.32,2.51,.37,3.57,.75,1.16,2.05,1.85,3.48,1.85,.05,0,.11,0,.17,0l22.26-.81c2.15-.08,4.04-1.34,4.93-3.3l.12-.25,.07-.27,2.4-9.73,16.61-.61,3.1,9.53,.09,.26,.13,.24c.99,1.81,2.89,2.94,4.95,2.94,.07,0,.14,0,.21,0l22.26-.81c1.47-.05,2.76-.82,3.46-2.05,.64-1.13,.69-2.47,.14-3.65L400.06,7.33l-.07-.19-.1-.18c-.91-1.67-3.19-2.92-5.29-2.92h0Zm-12.01,48.73l1.83-7.47,2.37,7.32-4.2,.15h0Z"/><path class="cls-13" d="M434.22,84.95c-1.59,0-3.03-1.38-3.09-2.96l-2.71-74.31c-.06-1.7,1.32-3.24,2.96-3.3l20.03-.73c1.72,0,3.12,1.35,3.18,3.07l2.71,74.31c.06,1.69-1.32,3.12-3.07,3.19l-20,.73Z"/><path class="cls-3" d="M451.4,5.14c.97,0,1.65,.75,1.68,1.63l2.71,74.31c.03,.79-.62,1.6-1.63,1.64l-19.9,.73s-.03,0-.04,0c-.77,0-1.56-.74-1.59-1.52l-2.71-74.31c-.03-.9,.73-1.71,1.51-1.74l19.9-.73s.05,0,.07,0m0-3c-.06,0-.12,0-.18,0l-19.9,.73c-2.48,.09-4.49,2.31-4.4,4.85l2.71,74.32c.09,2.39,2.19,4.41,4.59,4.41h.16s19.9-.73,19.9-.73c2.58-.09,4.61-2.22,4.52-4.74l-2.71-74.32c-.09-2.53-2.14-4.52-4.68-4.52h0Z"/><path class="cls-14" d="M465.58,83.8c-1.67,0-3.13-1.36-3.19-2.96l-2.71-74.31c-.03-.82,.28-1.65,.86-2.27,.58-.62,1.38-1,2.2-1.03l20.01-.73c1.7,0,3.13,1.38,3.19,3.07l1.98,54.15,19.52-.71c1.6,0,2.91,1.3,2.97,2.97v.07s-.95,17.22-.95,17.22c-.17,1.66-1.6,3-3.18,3.06l-40.7,1.48Z"/><path class="cls-3" d="M482.76,4c.88,0,1.66,.75,1.69,1.63l2.03,55.65,20.91-.76s.03,0,.05,0c.77,0,1.44,.64,1.47,1.52l-.95,17.15c-.08,.79-.84,1.61-1.74,1.64l-40.59,1.48s-.04,0-.06,0c-.88,0-1.66-.74-1.69-1.51l-2.71-74.31c-.03-.9,.73-1.71,1.62-1.75l19.9-.73s.04,0,.06,0m0-3c-.05,0-.11,0-.16,0l-19.9,.73c-2.54,.09-4.61,2.32-4.51,4.86l2.71,74.31c.09,2.39,2.23,4.4,4.69,4.4,.06,0,.11,0,.17,0l40.59-1.48c2.34-.09,4.37-1.98,4.61-4.32v-.08s.01-.08,.01-.08l.95-17.15v-.14s0-.14,0-.14c-.09-2.47-2.05-4.41-4.47-4.41-.05,0-.11,0-.16,0l-17.91,.65-1.92-52.65c-.09-2.49-2.2-4.52-4.69-4.52h0Z"/><path class="cls-3" d="M55.73,19.41c.97,0,1.64,.75,1.67,1.51l.62,16.98c.04,1.01-.61,1.71-1.62,1.75l-28.56,1.04,.37,10.23,22.6-.83s.05,0,.07,0c.97,0,1.53,.75,1.44,1.41l-1,15.8c-.09,.68-.85,1.5-1.86,1.53l-20.58,.75,.98,26.87c.03,.79-.73,1.6-1.63,1.64l-19.9,.73s-.03,0-.05,0c-.88,0-1.56-.86-1.59-1.63L4,22.87c-.03-.79,.62-1.6,1.52-1.63l50.14-1.83s.05,0,.07,0m0-3c-.06,0-.12,0-.18,0l-50.14,1.83c-1.21,.04-2.33,.56-3.17,1.46-.83,.89-1.28,2.09-1.24,3.28L3.72,97.3c.09,2.49,2.15,4.52,4.59,4.52h.16s19.9-.73,19.9-.73c2.54-.09,4.61-2.27,4.52-4.74l-.87-23.87,17.58-.64c2.35-.08,4.43-1.9,4.72-4.14v-.1s.02-.1,.02-.1l.99-15.73c.11-1.14-.26-2.28-1.04-3.16-.84-.96-2.08-1.5-3.4-1.5-.06,0-.12,0-.18,0l-19.6,.72-.15-4.24,25.56-.93c2.67-.1,4.61-2.19,4.51-4.86l-.62-16.98c-.09-2.47-2.14-4.4-4.67-4.4h0Z"/><path class="cls-3" d="M83.61,18.39c.97,0,1.65,.75,1.68,1.63l2.71,74.31c.03,.79-.62,1.6-1.63,1.64l-19.9,.73s-.03,0-.04,0c-.77,0-1.56-.74-1.59-1.52l-2.71-74.31c-.03-.9,.72-1.71,1.51-1.74l19.9-.73s.05,0,.07,0m0-3c-.06,0-.12,0-.18,0l-19.9,.73c-2.48,.09-4.49,2.31-4.4,4.85l2.71,74.32c.09,2.39,2.19,4.41,4.59,4.41h.15s19.9-.73,19.9-.73c1.27-.05,2.44-.58,3.29-1.49,.82-.88,1.27-2.07,1.22-3.25l-2.71-74.31c-.09-2.53-2.15-4.52-4.68-4.52h0Z"/><path class="cls-3" d="M126.27,16.86c16.45,0,27.58,9.57,28.13,24.39,.32,8.88-4.74,18.07-13.04,21.98l18.93,28.24c.6,.99-.16,1.81-1.17,1.84l-24.06,.88s-.06,0-.09,0c-1.09,0-2.09-.74-2.56-1.71l-12.59-24.08-1.35,.05,.9,24.73c.03,.79-.73,1.6-1.74,1.64l-19.79,.72s-.04,0-.06,0c-.88,0-1.66-.74-1.69-1.51l-2.71-74.31c-.03-.9,.72-1.71,1.62-1.75l29.68-1.08c.53-.02,1.06-.03,1.58-.03m-8.5,32.48l6.63-.24c3.82-.14,6.32-2.59,6.19-6.19-.13-3.49-2.65-5.73-6.29-5.73-.11,0-.22,0-.33,0l-6.63,.24,.43,11.92m8.51-35.48v0h0c-.56,0-1.12,.01-1.69,.03l-29.68,1.08c-1.22,.04-2.4,.59-3.25,1.5-.85,.91-1.31,2.13-1.26,3.35l2.71,74.31c.09,2.39,2.23,4.4,4.69,4.4,.06,0,.11,0,.17,0l19.79-.72c1.23-.05,2.38-.54,3.25-1.4,.92-.9,1.42-2.13,1.38-3.35l-.52-14.31,7.88,15.08c1.01,2.03,3.07,3.35,5.24,3.35,.07,0,.13,0,.2,0l24.06-.88c1.62-.06,3.08-.92,3.79-2.25,.69-1.28,.63-2.83-.17-4.14l-.04-.06-.04-.06-17.13-25.56c7.37-4.92,12.09-13.96,11.75-23.1-.6-16.32-13.1-27.28-31.12-27.28h0Zm-5.83,26.45l3.63-.13c.08,0,.15,0,.22,0,1.19,0,3.21,.37,3.3,2.84,.09,2.58-2.03,3.04-3.3,3.09l-3.64,.13-.22-5.92h0Z"/><path class="cls-3" d="M189.49,12.86c7.8,0,17.43,2.83,24.36,7.2,.92,.53,1.29,1.42,.97,1.99l-6.5,16.11c-.21,.79-.65,1.21-1.21,1.21-.24,0-.51-.08-.79-.24-5.62-2.95-12.12-5.07-16.07-5.27-3.49,.13-5.68,1.78-5.59,4.26,.24,6.63,32.04,5.02,32.95,29.76,.55,14.95-10.67,25.38-27.98,26.01-.57,.02-1.14,.03-1.71,.03-8.92,0-18.09-2.51-23.52-6.54-.92-.64-1.29-1.42-.97-1.99l6.5-16.11c.21-.79,.65-1.21,1.21-1.21,.24,0,.51,.08,.78,.24,5.28,2.73,11.54,4.64,15.83,4.83,3.6-.13,5.9-1.9,5.8-4.49-.24-6.63-31.82-5.14-32.72-29.65-.55-15.07,10.44-25.49,27.53-26.11,.37-.01,.74-.02,1.12-.02m0-3c-.41,0-.83,0-1.23,.02-18.81,.69-31.03,12.43-30.42,29.22,.66,18.17,16.49,23.73,25.95,27.05,2.48,.87,5.83,2.05,6.74,2.87-.04,.13-.13,.26-.33,.42-.51,.39-1.39,.64-2.45,.69-3.83-.19-9.59-1.98-14.4-4.46-.71-.4-1.46-.6-2.21-.6-1.88,0-3.45,1.26-4.05,3.23l-6.4,15.86c-.77,1.64-.46,3.95,1.96,5.66,5.93,4.38,15.61,7.1,25.28,7.1,.61,0,1.21-.01,1.82-.03,9.22-.34,17.05-3.25,22.62-8.44,5.7-5.3,8.55-12.45,8.25-20.68-.67-18.35-16.63-23.89-26.17-27.2-2.47-.86-5.79-2.01-6.73-2.82,.04-.08,.11-.15,.23-.25,.22-.17,.88-.56,2.3-.63,3.53,.21,9.51,2.21,14.65,4.9,.72,.4,1.46,.6,2.22,.6,1.88,0,3.45-1.26,4.05-3.23l6.4-15.86c.95-2,.04-4.49-2.16-5.79-7.38-4.64-17.54-7.63-25.91-7.63h0Z"/><path class="cls-3" d="M280.02,11.22c.97,0,1.64,.75,1.56,1.52l-1.06,17.15c-.08,.9-.95,1.61-1.74,1.64l-16.75,.61,2.04,55.76c.03,.79-.62,1.6-1.52,1.63l-19.9,.73s-.04,0-.06,0c-.88,0-1.66-.74-1.69-1.51l-2.04-55.77-18.66,.68s-.03,0-.05,0c-.77,0-1.55-.64-1.58-1.52l-.62-16.98c-.03-.9,.73-1.71,1.51-1.74l60.49-2.21s.05,0,.07,0m0-3c-.06,0-.12,0-.18,0l-60.48,2.21c-2.48,.09-4.49,2.31-4.4,4.85l.62,16.98c.09,2.43,2.14,4.41,4.58,4.41,.05,0,.11,0,.16,0l15.66-.57,1.93,52.77c.09,2.39,2.23,4.4,4.69,4.4,.06,0,.11,0,.17,0l19.9-.73c1.21-.04,2.33-.56,3.17-1.46,.83-.89,1.28-2.09,1.24-3.28l-1.93-52.76,13.75-.5c2.38-.09,4.41-2.01,4.62-4.37v-.04s0-.04,0-.04l1.06-17.1c.1-1.17-.3-2.35-1.1-3.24-.86-.96-2.12-1.51-3.45-1.51h0Z"/><path class="cls-3" d="M351.97,8.59c.97,0,1.64,.75,1.67,1.51l.62,16.98c.04,1.01-.61,1.71-1.62,1.75l-28.56,1.04,.37,10.23,22.6-.82s.05,0,.07,0c.97,0,1.53,.75,1.44,1.41l-1,15.8c-.09,.68-.85,1.49-1.86,1.53l-20.57,.75,.98,26.87c.03,.79-.73,1.6-1.63,1.64l-19.9,.73s-.03,0-.05,0c-.87,0-1.56-.86-1.59-1.63l-2.71-74.31c-.03-.79,.62-1.6,1.52-1.63l50.14-1.83s.05,0,.07,0m0-3c-.06,0-.12,0-.18,0l-50.14,1.83c-2.52,.09-4.5,2.22-4.41,4.74l2.71,74.32c.09,2.45,2.19,4.52,4.58,4.52h.16s19.9-.73,19.9-.73c1.2-.04,2.34-.55,3.2-1.44,.88-.9,1.36-2.11,1.31-3.3l-.87-23.87,17.58-.64c2.36-.09,4.43-1.91,4.73-4.14v-.1s.02-.1,.02-.1l.99-15.73c.11-1.14-.26-2.28-1.04-3.16-.84-.96-2.08-1.5-3.4-1.5-.06,0-.12,0-.18,0l-19.6,.71-.15-4.24,25.56-.93c2.67-.1,4.61-2.19,4.51-4.86l-.62-16.98c-.09-2.47-2.14-4.4-4.67-4.4h0Z"/><path class="cls-3" d="M394.6,7.04c1.1,0,2.31,.72,2.66,1.36l28.13,73.73c.36,.66-.06,1.47-.96,1.5l-22.26,.81s-.07,0-.1,0c-.97,0-1.85-.52-2.32-1.38l-3.8-11.68-21.14,.77-2.94,11.93c-.42,.92-1.29,1.51-2.31,1.55l-22.26,.81s-.04,0-.06,0c-.86,0-1.32-.75-1.01-1.43l22.68-75.58c.31-.69,1.52-1.52,2.64-1.56l22.93-.84s.06,0,.09,0m-15.87,48.87l12.14-.44-6.85-21.14-5.29,21.58m15.87-51.87h0c-.07,0-.13,0-.2,0l-22.93,.84c-2.18,.08-4.44,1.5-5.27,3.31l-.08,.19-.06,.2-22.64,75.45c-.45,1.19-.32,2.51,.37,3.57,.75,1.16,2.05,1.85,3.48,1.85,.05,0,.11,0,.17,0l22.26-.81c2.15-.08,4.04-1.34,4.93-3.3l.12-.25,.07-.27,2.4-9.73,16.61-.61,3.1,9.53,.09,.26,.13,.24c.99,1.81,2.89,2.94,4.95,2.94,.07,0,.14,0,.21,0l22.26-.81c1.47-.05,2.76-.82,3.46-2.05,.64-1.13,.69-2.47,.14-3.65L400.06,7.33l-.07-.19-.1-.18c-.91-1.67-3.19-2.92-5.29-2.92h0Zm-12.01,48.73l1.83-7.47,2.37,7.32-4.2,.15h0Z"/><path class="cls-3" d="M451.4,5.14c.97,0,1.65,.75,1.68,1.63l2.71,74.31c.03,.79-.62,1.6-1.63,1.64l-19.9,.73s-.03,0-.04,0c-.77,0-1.56-.74-1.59-1.52l-2.71-74.31c-.03-.9,.73-1.71,1.51-1.74l19.9-.73s.05,0,.07,0m0-3c-.06,0-.12,0-.18,0l-19.9,.73c-2.48,.09-4.49,2.31-4.4,4.85l2.71,74.32c.09,2.39,2.19,4.41,4.59,4.41h.16s19.9-.73,19.9-.73c2.58-.09,4.61-2.22,4.52-4.74l-2.71-74.32c-.09-2.53-2.14-4.52-4.68-4.52h0Z"/><path class="cls-3" d="M482.76,4c.88,0,1.66,.75,1.69,1.63l2.03,55.65,20.91-.76s.03,0,.05,0c.77,0,1.44,.64,1.47,1.52l-.95,17.15c-.08,.79-.84,1.61-1.74,1.64l-40.59,1.48s-.04,0-.06,0c-.88,0-1.66-.74-1.69-1.51l-2.71-74.31c-.03-.9,.73-1.71,1.62-1.75l19.9-.73s.04,0,.06,0m0-3c-.05,0-.11,0-.16,0l-19.9,.73c-2.54,.09-4.61,2.32-4.51,4.86l2.71,74.31c.09,2.39,2.23,4.4,4.69,4.4,.06,0,.11,0,.17,0l40.59-1.48c2.34-.09,4.37-1.98,4.61-4.32v-.08s.01-.08,.01-.08l.95-17.15v-.14s0-.14,0-.14c-.09-2.47-2.05-4.41-4.47-4.41-.05,0-.11,0-.16,0l-17.91,.65-1.92-52.65c-.09-2.49-2.2-4.52-4.69-4.52h0Z"/><path class="cls-3" d="M55.73,19.41c.97,0,1.64,.75,1.67,1.51l.62,16.98c.04,1.01-.61,1.71-1.62,1.75l-28.56,1.04,.37,10.23,22.6-.83s.05,0,.07,0c.97,0,1.53,.75,1.44,1.41l-1,15.8c-.09,.68-.85,1.5-1.86,1.53l-20.58,.75,.98,26.87c.03,.79-.73,1.6-1.63,1.64l-19.9,.73s-.03,0-.05,0c-.88,0-1.56-.86-1.59-1.63L4,22.87c-.03-.79,.62-1.6,1.52-1.63l50.14-1.83s.05,0,.07,0m0-3c-.06,0-.12,0-.18,0l-50.14,1.83c-1.21,.04-2.33,.56-3.17,1.46-.83,.89-1.28,2.09-1.24,3.28L3.72,97.3c.09,2.49,2.15,4.52,4.59,4.52h.16s19.9-.73,19.9-.73c2.54-.09,4.61-2.27,4.52-4.74l-.87-23.87,17.58-.64c2.35-.08,4.43-1.9,4.72-4.14v-.1s.02-.1,.02-.1l.99-15.73c.11-1.14-.26-2.28-1.04-3.16-.84-.96-2.08-1.5-3.4-1.5-.06,0-.12,0-.18,0l-19.6,.72-.15-4.24,25.56-.93c2.67-.1,4.61-2.19,4.51-4.86l-.62-16.98c-.09-2.47-2.14-4.4-4.67-4.4h0Z"/><path class="cls-3" d="M83.61,18.39c.97,0,1.65,.75,1.68,1.63l2.71,74.31c.03,.79-.62,1.6-1.63,1.64l-19.9,.73s-.03,0-.04,0c-.77,0-1.56-.74-1.59-1.52l-2.71-74.31c-.03-.9,.72-1.71,1.51-1.74l19.9-.73s.05,0,.07,0m0-3c-.06,0-.12,0-.18,0l-19.9,.73c-2.48,.09-4.49,2.31-4.4,4.85l2.71,74.32c.09,2.39,2.19,4.41,4.59,4.41h.15s19.9-.73,19.9-.73c1.27-.05,2.44-.58,3.29-1.49,.82-.88,1.27-2.07,1.22-3.25l-2.71-74.31c-.09-2.53-2.15-4.52-4.68-4.52h0Z"/><path class="cls-3" d="M126.27,16.86c16.45,0,27.58,9.57,28.13,24.39,.32,8.88-4.74,18.07-13.04,21.98l18.93,28.24c.6,.99-.16,1.81-1.17,1.84l-24.06,.88s-.06,0-.09,0c-1.09,0-2.09-.74-2.56-1.71l-12.59-24.08-1.35,.05,.9,24.73c.03,.79-.73,1.6-1.74,1.64l-19.79,.72s-.04,0-.06,0c-.88,0-1.66-.74-1.69-1.51l-2.71-74.31c-.03-.9,.72-1.71,1.62-1.75l29.68-1.08c.53-.02,1.06-.03,1.58-.03m-8.5,32.48l6.63-.24c3.82-.14,6.32-2.59,6.19-6.19-.13-3.49-2.65-5.73-6.29-5.73-.11,0-.22,0-.33,0l-6.63,.24,.43,11.92m8.51-35.48v0h0c-.56,0-1.12,.01-1.69,.03l-29.68,1.08c-1.22,.04-2.4,.59-3.25,1.5-.85,.91-1.31,2.13-1.26,3.35l2.71,74.31c.09,2.39,2.23,4.4,4.69,4.4,.06,0,.11,0,.17,0l19.79-.72c1.23-.05,2.38-.54,3.25-1.4,.92-.9,1.42-2.13,1.38-3.35l-.52-14.31,7.88,15.08c1.01,2.03,3.07,3.35,5.24,3.35,.07,0,.13,0,.2,0l24.06-.88c1.62-.06,3.08-.92,3.79-2.25,.69-1.28,.63-2.83-.17-4.14l-.04-.06-.04-.06-17.13-25.56c7.37-4.92,12.09-13.96,11.75-23.1-.6-16.32-13.1-27.28-31.12-27.28h0Zm-5.83,26.45l3.63-.13c.08,0,.15,0,.22,0,1.19,0,3.21,.37,3.3,2.84,.09,2.58-2.03,3.04-3.3,3.09l-3.64,.13-.22-5.92h0Z"/><path class="cls-3" d="M189.49,12.86c7.8,0,17.43,2.83,24.36,7.2,.92,.53,1.29,1.42,.97,1.99l-6.5,16.11c-.21,.79-.65,1.21-1.21,1.21-.24,0-.51-.08-.79-.24-5.62-2.95-12.12-5.07-16.07-5.27-3.49,.13-5.68,1.78-5.59,4.26,.24,6.63,32.04,5.02,32.95,29.76,.55,14.95-10.67,25.38-27.98,26.01-.57,.02-1.14,.03-1.71,.03-8.92,0-18.09-2.51-23.52-6.54-.92-.64-1.29-1.42-.97-1.99l6.5-16.11c.21-.79,.65-1.21,1.21-1.21,.24,0,.51,.08,.78,.24,5.28,2.73,11.54,4.64,15.83,4.83,3.6-.13,5.9-1.9,5.8-4.49-.24-6.63-31.82-5.14-32.72-29.65-.55-15.07,10.44-25.49,27.53-26.11,.37-.01,.74-.02,1.12-.02m0-3c-.41,0-.83,0-1.23,.02-18.81,.69-31.03,12.43-30.42,29.22,.66,18.17,16.49,23.73,25.95,27.05,2.48,.87,5.83,2.05,6.74,2.87-.04,.13-.13,.26-.33,.42-.51,.39-1.39,.64-2.45,.69-3.83-.19-9.59-1.98-14.4-4.46-.71-.4-1.46-.6-2.21-.6-1.88,0-3.45,1.26-4.05,3.23l-6.4,15.86c-.77,1.64-.46,3.95,1.96,5.66,5.93,4.38,15.61,7.1,25.28,7.1,.61,0,1.21-.01,1.82-.03,9.22-.34,17.05-3.25,22.62-8.44,5.7-5.3,8.55-12.45,8.25-20.68-.67-18.35-16.63-23.89-26.17-27.2-2.47-.86-5.79-2.01-6.73-2.82,.04-.08,.11-.15,.23-.25,.22-.17,.88-.56,2.3-.63,3.53,.21,9.51,2.21,14.65,4.9,.72,.4,1.46,.6,2.22,.6,1.88,0,3.45-1.26,4.05-3.23l6.4-15.86c.95-2,.04-4.49-2.16-5.79-7.38-4.64-17.54-7.63-25.91-7.63h0Z"/><path class="cls-3" d="M280.02,11.22c.97,0,1.64,.75,1.56,1.52l-1.06,17.15c-.08,.9-.95,1.61-1.74,1.64l-16.75,.61,2.04,55.76c.03,.79-.62,1.6-1.52,1.63l-19.9,.73s-.04,0-.06,0c-.88,0-1.66-.74-1.69-1.51l-2.04-55.77-18.66,.68s-.03,0-.05,0c-.77,0-1.55-.64-1.58-1.52l-.62-16.98c-.03-.9,.73-1.71,1.51-1.74l60.49-2.21s.05,0,.07,0m0-3c-.06,0-.12,0-.18,0l-60.48,2.21c-2.48,.09-4.49,2.31-4.4,4.85l.62,16.98c.09,2.43,2.14,4.41,4.58,4.41,.05,0,.11,0,.16,0l15.66-.57,1.93,52.77c.09,2.39,2.23,4.4,4.69,4.4,.06,0,.11,0,.17,0l19.9-.73c1.21-.04,2.33-.56,3.17-1.46,.83-.89,1.28-2.09,1.24-3.28l-1.93-52.76,13.75-.5c2.38-.09,4.41-2.01,4.62-4.37v-.04s0-.04,0-.04l1.06-17.1c.1-1.17-.3-2.35-1.1-3.24-.86-.96-2.12-1.51-3.45-1.51h0Z"/><path class="cls-3" d="M351.97,8.59c.97,0,1.64,.75,1.67,1.51l.62,16.98c.04,1.01-.61,1.71-1.62,1.75l-28.56,1.04,.37,10.23,22.6-.82s.05,0,.07,0c.97,0,1.53,.75,1.44,1.41l-1,15.8c-.09,.68-.85,1.49-1.86,1.53l-20.57,.75,.98,26.87c.03,.79-.73,1.6-1.63,1.64l-19.9,.73s-.03,0-.05,0c-.87,0-1.56-.86-1.59-1.63l-2.71-74.31c-.03-.79,.62-1.6,1.52-1.63l50.14-1.83s.05,0,.07,0m0-3c-.06,0-.12,0-.18,0l-50.14,1.83c-2.52,.09-4.5,2.22-4.41,4.74l2.71,74.32c.09,2.45,2.19,4.52,4.58,4.52h.16s19.9-.73,19.9-.73c1.2-.04,2.34-.55,3.2-1.44,.88-.9,1.36-2.11,1.31-3.3l-.87-23.87,17.58-.64c2.36-.09,4.43-1.91,4.73-4.14v-.1s.02-.1,.02-.1l.99-15.73c.11-1.14-.26-2.28-1.04-3.16-.84-.96-2.08-1.5-3.4-1.5-.06,0-.12,0-.18,0l-19.6,.71-.15-4.24,25.56-.93c2.67-.1,4.61-2.19,4.51-4.86l-.62-16.98c-.09-2.47-2.14-4.4-4.67-4.4h0Z"/><path class="cls-3" d="M394.6,7.04c1.1,0,2.31,.72,2.66,1.36l28.13,73.73c.36,.66-.06,1.47-.96,1.5l-22.26,.81s-.07,0-.1,0c-.97,0-1.85-.52-2.32-1.38l-3.8-11.68-21.14,.77-2.94,11.93c-.42,.92-1.29,1.51-2.31,1.55l-22.26,.81s-.04,0-.06,0c-.86,0-1.32-.75-1.01-1.43l22.68-75.58c.31-.69,1.52-1.52,2.64-1.56l22.93-.84s.06,0,.09,0m-15.87,48.87l12.14-.44-6.85-21.14-5.29,21.58m15.87-51.87h0c-.07,0-.13,0-.2,0l-22.93,.84c-2.18,.08-4.44,1.5-5.27,3.31l-.08,.19-.06,.2-22.64,75.45c-.45,1.19-.32,2.51,.37,3.57,.75,1.16,2.05,1.85,3.48,1.85,.05,0,.11,0,.17,0l22.26-.81c2.15-.08,4.04-1.34,4.93-3.3l.12-.25,.07-.27,2.4-9.73,16.61-.61,3.1,9.53,.09,.26,.13,.24c.99,1.81,2.89,2.94,4.95,2.94,.07,0,.14,0,.21,0l22.26-.81c1.47-.05,2.76-.82,3.46-2.05,.64-1.13,.69-2.47,.14-3.65L400.06,7.33l-.07-.19-.1-.18c-.91-1.67-3.19-2.92-5.29-2.92h0Zm-12.01,48.73l1.83-7.47,2.37,7.32-4.2,.15h0Z"/><path class="cls-3" d="M451.4,5.14c.97,0,1.65,.75,1.68,1.63l2.71,74.31c.03,.79-.62,1.6-1.63,1.64l-19.9,.73s-.03,0-.04,0c-.77,0-1.56-.74-1.59-1.52l-2.71-74.31c-.03-.9,.73-1.71,1.51-1.74l19.9-.73s.05,0,.07,0m0-3c-.06,0-.12,0-.18,0l-19.9,.73c-2.48,.09-4.49,2.31-4.4,4.85l2.71,74.32c.09,2.39,2.19,4.41,4.59,4.41h.16s19.9-.73,19.9-.73c2.58-.09,4.61-2.22,4.52-4.74l-2.71-74.32c-.09-2.53-2.14-4.52-4.68-4.52h0Z"/><path class="cls-3" d="M482.76,4c.88,0,1.66,.75,1.69,1.63l2.03,55.65,20.91-.76s.03,0,.05,0c.77,0,1.44,.64,1.47,1.52l-.95,17.15c-.08,.79-.84,1.61-1.74,1.64l-40.59,1.48s-.04,0-.06,0c-.88,0-1.66-.74-1.69-1.51l-2.71-74.31c-.03-.9,.73-1.71,1.62-1.75l19.9-.73s.04,0,.06,0m0-3c-.05,0-.11,0-.16,0l-19.9,.73c-2.54,.09-4.61,2.32-4.51,4.86l2.71,74.31c.09,2.39,2.23,4.4,4.69,4.4,.06,0,.11,0,.17,0l40.59-1.48c2.34-.09,4.37-1.98,4.61-4.32v-.08s.01-.08,.01-.08l.95-17.15v-.14s0-.14,0-.14c-.09-2.47-2.05-4.41-4.47-4.41-.05,0-.11,0-.16,0l-17.91,.65-1.92-52.65c-.09-2.49-2.2-4.52-4.69-4.52h0Z"/></g></g></svg>